<?xml version="1.0" encoding="utf-8"?>
<!-- Generator: Adobe Illustrator 22.0.1, SVG Export Plug-In . SVG Version: 6.00 Build 0)  -->
<svg version="1.1" id="Calque_1" xmlns="http://www.w3.org/2000/svg" xmlns:xlink="http://www.w3.org/1999/xlink" x="0px" y="0px"
	 viewBox="0 0 283.5 283.5" style="enable-background:new 0 0 283.5 283.5;" xml:space="preserve">
<style type="text/css">
	.st0{fill:#9B8568;}
	.st1{fill:#9C8669;}
	.st2{fill:#D02826;}
	.st3{fill:#FFFFFF;}
	.st4{clip-path:url(#SVGID_2_);}
	.st5{clip-path:url(#SVGID_4_);fill:#CF2725;}
	.st6{clip-path:url(#SVGID_4_);fill:#FEEB18;}
</style>
<g>
	<path class="st0" d="M119.4,112.1c0,1.9,0,3.8,0,5.7c0,0.5-0.2,0.7-0.7,0.7c-1.6,0-3.3,0-4.9,0c-1.9-1.9-3.9-3.7-5.8-5.6
		c-0.3-0.3-0.6-0.5-1-0.5c-2.5-0.1-4.9-0.8-7.3-1.6c-5.4-1.8-10.4-4.3-15.4-7c-7.3-3.9-14.2-8.3-21-13c-4.4-3.1-8.7-6.2-12.7-9.8
		c-0.9-0.8-1.8-1.7-2.7-2.6c-3.4-3.3-6.9-6.5-10.2-10c-1.8-1.9-3.5-4-4.8-6.3c-3.4-5.7-3.2-11.3,0.3-16.9c3.2-5.1,7.5-9.3,12.6-12.4
		c2.5-1.5,5.2-2.4,8.2-2.4c2.7,0,5.2,0.8,7.5,2c3.1,1.7,5.7,3.9,8.1,6.3c3.8,3.8,7.5,7.6,11.2,11.5c2.9,3.1,5.4,6.5,7.9,10
		c4,5.4,7.6,11.1,11.1,16.8c3.3,5.5,6.3,11.1,8.9,17c1.5,3.6,3,7.2,3.6,11.1c0.1,0.4,0.2,0.7,0.5,1c2,1.9,4,3.8,6,5.7
		C119,111.9,119.1,112.1,119.4,112.1z"/>
	<path class="st0" d="M172.1,118.4c-2.1,0-4.3,0-6.4,0c-0.8,0-0.9,0-0.9-0.9c0-1.2,0-2.3,0-3.5c0.3,0,0.5-0.2,0.7-0.4
		c2.5-2.6,5.1-5.3,7.6-7.9c0.3-0.3,0.5-0.6,0.5-1c0.2-3.3,1.2-6.4,2.4-9.5c2.6-6.7,6-13,9.6-19.1c4.3-7.2,8.9-14.2,14-20.9
		c2.2-2.8,4.4-5.6,6.9-8.1c2.8-2.8,5.5-5.7,8.3-8.5c2.2-2.2,4.5-4.2,7.1-5.9c2.3-1.5,4.8-2.5,7.6-2.8c3.4-0.3,6.4,0.7,9.2,2.4
		c3.3,1.9,6,4.5,8.6,7.3c1.8,2,3.4,4.1,4.5,6.5c2.4,4.8,2.2,9.5-0.3,14.2c-1.6,2.8-3.6,5.3-5.8,7.6c-3.8,3.9-7.7,7.7-11.7,11.4
		c-3.6,3.3-7.6,6.2-11.6,9c-6,4.2-12.2,8.2-18.6,11.8c-5.4,3.1-11,5.9-16.9,8.1c-2,0.7-4,1.4-6.1,1.7c-0.6,0.1-1.1,0.3-1.5,0.8
		c-2.1,2.2-4.3,4.5-6.4,6.7"/>
	<path class="st1" d="M164.9,170.2c0-1.8,0-3.7,0-5.5c0-0.6,0.2-0.8,0.8-0.8c1.7,0,3.4,0,5.1,0c0.1,0.2,0.2,0.4,0.4,0.5
		c6.4,6.1,12.8,12.3,19.2,18.4c6.7,6.4,13.4,12.9,20.2,19.3c4.9,4.7,9.8,9.3,14.6,14c0.1,0.1,0.1,0.1,0.2,0.1
		c0.9,0.9,0.9,0.9,1.9,0.1c1.4-1,2.8-2,4.3-2.7c0.9-0.4,1.9-0.7,2.9-0.7c1.3,0,1.9,0.7,2,2c0.1,1.4-0.4,2.6-1,3.9
		c-1.5,3.2-3.7,5.8-6.1,8.3c-2.2,2.2-4.7,4.2-7.5,5.5c-0.8,0.4-1.6,0.6-2.4,0.8c-1.7,0.3-2.7-0.5-2.7-2.2c0-1.6,0.7-3,1.4-4.4
		c0.5-1,1.2-2,1.8-3c0.5-0.7,0.5-0.7-0.1-1.3c-1.8-1.7-3.5-3.4-5.3-5.1c-4-3.8-8-7.7-12-11.5c-5.3-5-10.5-10.1-15.8-15.1
		c-6.5-6.3-13.1-12.5-19.6-18.7c-0.6-0.5-1.1-1-1.7-1.6C165.3,170.3,165.1,170.2,164.9,170.2z"/>
	<path class="st1" d="M112.6,164c2,0,3.9,0,5.9,0c0.9,0,1,0.1,1,1c0,1.3,0,2.7,0,4c-0.5,0-0.7,0.4-0.9,0.7c-3.3,3.5-6.6,6.9-10,10.4
		c-5.3,5.6-10.7,11.2-16,16.8c-6.5,6.8-13.1,13.6-19.6,20.5c-2.4,2.5-4.8,5-7.1,7.5c-0.7,0.8-0.6,0.7-0.1,1.4
		c1.3,1.7,2.5,3.5,3.2,5.5c0.2,0.6,0.3,1.2,0.3,1.8c0,1.2-0.7,1.9-1.9,2c-0.8,0.1-1.6-0.1-2.3-0.4c-2.9-1-5.4-2.8-7.7-4.8
		c-2.6-2.3-4.9-4.8-6.6-7.9c-0.6-1-1.1-2.1-1.3-3.3c-0.4-2.1,0.8-3.2,2.9-2.8c2.2,0.4,4.1,1.5,5.9,2.8c1.3,0.9,1.3,0.9,2.4-0.2
		c6.6-6.8,13.1-13.7,19.7-20.5c8.5-8.8,16.9-17.7,25.4-26.5c2.2-2.3,4.3-4.5,6.5-6.8C112.2,164.6,112.5,164.4,112.6,164z"/>
	<path class="st2" d="M269.4,109.7c0.1-0.1,0.2-0.1,0.2,0c0.1,0.1,0,0.2-0.1,0.2C269.5,109.9,269.4,109.8,269.4,109.7z"/>
	<path class="st3" d="M172.1,118.4"/>
</g>
<g>
	<g>
		<defs>
			<rect id="SVGID_1_" x="10.4" y="8.4" width="263.6" height="264.2"/>
		</defs>
		<clipPath id="SVGID_2_">
			<use xlink:href="#SVGID_1_"  style="overflow:visible;"/>
		</clipPath>
		<g class="st4">
			<defs>
				<rect id="SVGID_3_" x="10.4" y="8.4" width="263.6" height="264.2"/>
			</defs>
			<clipPath id="SVGID_4_">
				<use xlink:href="#SVGID_3_"  style="overflow:visible;"/>
			</clipPath>
			<path class="st5" d="M273.7,108.9c-6.4,12.6-15.8,22.4-27.8,29.7c-1.4,0.8-2.8,1.6-4.5,2.5c14.2,7.5,25,18,32.3,32.2
				c-0.1,0-0.2,0.1-0.2,0.2c-2.7-0.4-5.3-0.7-8-1.1c-2.4-0.3-4.8-0.6-7.2-0.9c-3.5-0.4-6.9-0.9-10.4-1.4c-1.9-0.2-3.9-0.4-5.9-0.6
				c-3.3-0.4-6.5-0.8-9.8-1.1c-2.3-0.2-4.7-0.4-7-0.6c-4-0.4-8-0.7-12-1.1c-1.4-0.1-2.8-0.2-4.3-0.3c-3.6-0.2-7.3-0.4-10.9-0.6
				c-5.3-0.3-10.6-0.6-15.8-0.8c-2.6-0.1-5.2-0.2-7.7-0.3c-2.8-0.1-5.6-0.3-8.7-0.4c0.1,3,0.3,5.7,0.4,8.5c0,0.2,0,0.5,0,0.7
				c0.1,3.8,0.1,7.7,0.3,11.5c0.2,5,0.5,10,0.8,15c0.2,3.8,0.5,7.7,0.8,11.5c0.3,3.4,0.5,6.8,0.8,10.3c0.4,4.7,0.9,9.4,1.4,14
				c0.4,4.2,0.9,8.3,1.4,12.5c0.6,4.7,1.3,9.4,1.9,14.1c0.4,3.2,0.8,6.4,1.1,9.6c-0.1,0.1-0.1,0.2-0.2,0.2
				c-12.6-6.4-22.4-15.8-29.7-27.8c-0.8-1.3-1.6-2.7-2.4-4.1c0,0-0.1,0-0.3-0.2c-7.4,13.9-17.9,24.8-32.1,32c0-0.1-0.1-0.2-0.2-0.2
				c0.4-2.7,0.7-5.3,1.1-8c0.3-2.4,0.6-4.8,0.9-7.2c0.4-3.5,0.9-6.9,1.4-10.4c0.2-2,0.4-3.9,0.6-5.9c0.4-3.3,0.8-6.5,1.1-9.8
				c0.2-2.3,0.4-4.7,0.6-7c0.4-4,0.7-8,1.1-12c0.1-1.4,0.2-2.7,0.3-4.1c0.2-3.5,0.4-7.1,0.6-10.6c0.2-3.5,0.4-7,0.6-10.5
				c0.2-4.3,0.4-8.6,0.6-12.8c0.1-3,0.3-6.1,0.4-9.4c-3,0.1-5.7,0.3-8.4,0.4c-0.2,0-0.5,0-0.7,0c-3.8,0.1-7.7,0.1-11.5,0.3
				c-5,0.2-10,0.5-15,0.8c-3.8,0.2-7.7,0.5-11.5,0.8c-3.4,0.3-6.8,0.5-10.3,0.8c-4.7,0.4-9.4,0.9-14,1.4c-4.2,0.4-8.3,0.9-12.5,1.4
				c-4.7,0.6-9.4,1.3-14.1,1.9c-3.2,0.4-6.4,0.8-9.6,1.1c-0.1-0.1-0.2-0.1-0.2-0.2c6.4-12.6,15.8-22.4,27.8-29.7
				c1.3-0.8,2.7-1.6,4.1-2.4c0,0,0-0.1,0.2-0.3c-13.9-7.4-24.8-17.9-32-32.1c0.1,0,0.2-0.1,0.2-0.2c2.7,0.4,5.3,0.7,8,1.1
				c2.4,0.3,4.8,0.6,7.2,0.9c3.5,0.4,6.9,0.9,10.4,1.4c1.9,0.2,3.9,0.4,5.9,0.6c3.3,0.4,6.5,0.8,9.8,1.1c2.3,0.2,4.7,0.4,7,0.6
				c4,0.4,8,0.7,12,1.1c1.4,0.1,2.7,0.2,4.1,0.3c3.5,0.2,7.1,0.4,10.6,0.6c3.5,0.2,7,0.4,10.5,0.6c4.3,0.2,8.6,0.4,12.8,0.6
				c3,0.1,6.1,0.3,9.4,0.4c-0.1-3-0.3-5.7-0.4-8.4c0-0.2,0-0.5,0-0.7c-0.1-3.8-0.1-7.7-0.3-11.5c-0.1-3.5-0.3-7.1-0.6-10.6
				c-0.2-4-0.5-8.1-0.8-12.1c-0.4-4.8-0.7-9.5-1.1-14.2c-0.3-3.8-0.7-7.5-1.1-11.3c-0.5-5.1-1.1-10.2-1.7-15.2
				c-0.5-4.3-1.1-8.7-1.7-13c-0.5-3.5-0.9-7-1.4-10.6c0.1-0.1,0.1-0.1,0.2-0.2c12.6,6.4,22.4,15.8,29.7,27.8
				c0.8,1.4,1.6,2.8,2.5,4.5c7.5-14.2,18-25,32.2-32.3c0,0.1,0.1,0.2,0.2,0.2c-0.4,2.7-0.7,5.3-1.1,8c-0.3,2.4-0.6,4.8-0.9,7.2
				c-0.4,3.5-0.9,6.9-1.4,10.4c-0.2,1.9-0.4,3.9-0.6,5.9c-0.4,3.3-0.8,6.5-1.1,9.8c-0.2,2.3-0.4,4.7-0.6,7c-0.4,4-0.7,8-1.1,12
				c-0.1,1.4-0.2,2.8-0.3,4.3c-0.2,3.6-0.4,7.3-0.6,10.9c-0.3,5.3-0.6,10.6-0.8,15.8c-0.1,2.6-0.2,5.2-0.3,7.7
				c-0.1,2.8-0.3,5.6-0.4,8.7c3-0.1,5.7-0.3,8.5-0.4c0.2,0,0.5,0,0.7,0c3.8-0.1,7.7-0.1,11.5-0.3c3.5-0.1,7.1-0.3,10.6-0.6
				c4-0.2,8.1-0.5,12.1-0.8c4.8-0.4,9.5-0.7,14.2-1.1c3.8-0.3,7.5-0.7,11.3-1.1c5.1-0.5,10.2-1.1,15.2-1.7c4.3-0.5,8.7-1.1,13-1.7
				c3.5-0.5,7-0.9,10.6-1.4C273.5,108.8,273.6,108.8,273.7,108.9"/>
			<path class="st5" d="M110.1,10.1c-0.1,0-0.2-0.1-0.4-0.1c0.1-0.1,0.1-0.2,0.2-0.2c0.1,0,0.2,0.1,0.3,0.1
				C110.3,10,110.2,10,110.1,10.1"/>
			<path class="st5" d="M174.7,9.9c0.1,0,0.2-0.1,0.3-0.1c0.1,0.1,0.1,0.1,0.2,0.2c-0.1,0-0.2,0.1-0.4,0.1
				C174.8,10,174.7,10,174.7,9.9"/>
			<path class="st5" d="M11.3,108.9c0-0.1-0.1-0.2-0.1-0.3c0.1-0.1,0.1-0.1,0.2-0.2c0,0.1,0.1,0.2,0.1,0.4
				C11.5,108.8,11.4,108.8,11.3,108.9"/>
			<path class="st5" d="M273.4,108.7c0-0.1,0.1-0.2,0.1-0.4c0.1,0.1,0.2,0.1,0.2,0.2c0,0.1-0.1,0.2-0.1,0.3
				C273.6,108.8,273.5,108.8,273.4,108.7"/>
			<path class="st5" d="M11.5,173.4c0,0.1-0.1,0.2-0.1,0.4c-0.1-0.1-0.2-0.1-0.2-0.2c0-0.1,0.1-0.2,0.1-0.3
				C11.4,173.3,11.5,173.4,11.5,173.4"/>
			<path class="st5" d="M273.7,173.3c0,0.1,0.1,0.2,0.1,0.3c-0.1,0.1-0.1,0.1-0.2,0.2l-0.1-0.4C273.5,173.3,273.6,173.3,273.7,173.3
				"/>
			<path class="st5" d="M110.3,272.3c-0.1,0-0.2,0.1-0.3,0.1c-0.1-0.1-0.1-0.1-0.2-0.2c0.1,0,0.2-0.1,0.4-0.1
				C110.2,272.1,110.3,272.2,110.3,272.3"/>
			<path class="st5" d="M174.8,272l0.4,0.1c-0.1,0.1-0.1,0.2-0.2,0.2c-0.1,0-0.2-0.1-0.3-0.1C174.7,272.2,174.8,272.1,174.8,272"/>
			<path class="st6" d="M157.7,191.8c-3.3-4.1-6.2-8.5-8.1-13.7h14.6v-4.1c-0.2-0.2-0.5-0.4-0.7-0.6c-3.5-2.8-5.9-6.4-7.4-10.7
				c-1.6-4.5-1.8-9.2-0.7-13.8c0.6-2.8,1.6-5.6,3.5-7.8c3.1-3.7,7.2-4.6,11.6-3.5c7.7,1.9,11,10.1,7.9,16.9
				c-1.1,2.5-3.1,4.3-5.5,5.7c0.6,0.4,1.2,0.3,1.7,0.4c12.5,0.5,22-10,20.3-22.4c-1.9-13.6-17.7-21.1-29.4-13.7
				c-4.8,3.1-8.1,7.5-10.8,12.5c-2.3,4.3-3.8,8.9-4.2,13.8c-0.5,4.7-0.4,9.4,0.5,14.1c0.7,3.1,1.8,6.1,3,9.1h-5.9
				c-0.9-4.2-1.5-8.3-1.3-12.6c0.2-3.1,0.4-6.3,1-9.3c1.6-8,4.1-15.7,6.7-23.4c1.6-4.8,3.1-9.7,4.5-14.6c1.5-5.1,2.5-10.4,2.8-15.7
				c0.3-5.4,0-10.8-1.9-16c-1-2.8-2.1-5.5-3.7-8c-2.3-3.7-5.2-7-8.5-9.9c-1.6-1.4-3.3-2.7-5.2-3.6c-0.4,0.2-0.6,0.3-0.9,0.5
				c-0.2,0.1-0.4,0.3-0.6,0.4v143.7c0.5,0.5,1,1,1.5,1.5C147.6,201.9,152.6,196.9,157.7,191.8"/>
			<path class="st6" d="M127.4,191.8c3.3-4.1,6.2-8.5,8.1-13.7H121v-4.1c0.2-0.2,0.5-0.4,0.7-0.6c3.5-2.8,5.9-6.4,7.4-10.7
				c1.6-4.5,1.8-9.2,0.7-13.8c-0.6-2.8-1.6-5.6-3.5-7.8c-3.1-3.7-7.2-4.6-11.6-3.5c-7.7,1.9-11,10.1-7.9,16.9
				c1.1,2.5,3.1,4.3,5.5,5.7c-0.6,0.4-1.2,0.3-1.7,0.4c-12.5,0.5-22-10-20.3-22.4c1.9-13.6,17.7-21.1,29.4-13.7
				c4.8,3.1,8.1,7.5,10.8,12.5c2.3,4.3,3.8,8.9,4.2,13.8c0.5,4.7,0.4,9.4-0.5,14.1c-0.7,3.1-1.8,6.1-3,9.1h5.9
				c0.9-4.2,1.5-8.3,1.3-12.6c-0.2-3.1-0.4-6.3-1-9.3c-1.6-8-4.1-15.7-6.7-23.4c-1.6-4.8-3.1-9.7-4.5-14.6
				c-1.5-5.1-2.5-10.4-2.8-15.7c-0.3-5.4,0-10.8,1.9-16c1-2.8,2.1-5.5,3.7-8c2.3-3.7,5.2-7,8.5-9.9c1.6-1.4,3.3-2.7,5.2-3.6
				c0.4,0.2,0.6,0.3,0.9,0.5c0.2,0.1,0.4,0.3,0.6,0.4v143.7c-0.5,0.5-1,1-1.5,1.5C137.6,201.9,132.5,196.9,127.4,191.8"/>
		</g>
	</g>
</g>
</svg>
