<svg xmlns="http://www.w3.org/2000/svg" viewBox="0 0 1000 1000" xml:space="preserve"><path d="M688.15 21.73c-2.31.96-11.33 10.17-19.96 20.15-8.83 10.17-16.31 18.42-16.89 18.42-.38 0-5.76-4.22-11.71-9.4-13.05-11.13-17.46-13.63-24.76-13.63-22.07 0-98.46 82.34-118.61 127.83-4.99 11.32-5.76 22.45-2.11 28.79 1.34 2.3 6.91 8.25 12.47 13.24l9.98 9.02-16.12 17.08c-18.62 19.38-22.46 26.68-38.58 70.82-22.07 60.46-51.05 110.74-91.55 159.3-22.26 26.49-35.12 38-88.86 78.69-51.05 38.77-78.69 62.19-106.52 90.21-66.22 66.22-135.7 165.07-161.23 228.98-8.44 21.5-2.69 40.5 19.77 64.11 29.17 30.71 70.82 49.71 116.5 53.55 20.73 1.73 28.6-1.34 43.95-17.46 15.55-16.12 20.54-27.64 22.07-50.29 2.69-43.76 18.23-87.9 41.07-117.65 24.38-31.67 51.82-55.85 138.57-121.49 64.68-48.94 84.45-65.06 111.13-90.59 30.71-29.56 86.75-93.47 146.25-166.6 14.59-17.85 26.87-32.24 27.64-32.24.77-.19 7.68 7.87 15.55 17.85 14.39 17.85 18.62 24.38 52.97 83.87 22.46 38.77 26.49 43.76 34.93 45.49 20.15 3.65 69.67-23.03 111.51-60.27 50.28-44.72 84.64-96.16 93.09-139.72 1.92-9.79 1.73-12.67-.77-18.81-2.69-6.34-4.99-8.06-18.81-14.2C939 283.33 893.7 260.3 877 249.74c-16.51-10.37-70.63-52.59-70.63-54.89 0-.58 6.53-9.02 14.59-18.43 18.62-22.26 20.15-25.14 18.04-34.74-1.35-6.14-6.34-11.9-28.22-33.4-46.25-45.48-97.68-85.4-112.08-87.32-3.64-.58-8.44-.19-10.55.77zm23.99 52.4c27.25 20.54 80.8 68.71 80.8 72.93 0 2.49-15.55 20.73-17.66 20.73-1.34 0-50.09-41.84-86.56-74.28l-7.29-6.52 8.83-10.56c4.99-5.76 9.41-10.37 9.98-10.37.76 0 5.95 3.65 11.9 8.07zm-40.69 56.61C795.05 238.61 827.1 264.9 857.62 284.1c9.21 5.95 33.4 18.81 53.74 28.79l36.85 18.23-2.69 7.29c-10.94 30.9-40.31 70.25-76.77 102.68-18.62 16.51-48.75 37.05-62.95 43.19l-9.02 3.84-10.37-17.66c-5.57-9.79-16.12-27.83-23.22-40.31-20.92-36.66-44.72-67.56-91.74-119.38-25.52-28.02-36.85-39.15-94.81-92.13-22.26-20.54-41.07-38.19-41.84-39.35-1.73-2.69 12.09-25.14 26.68-43.18 11.71-14.59 49.9-54.7 52.21-54.7.56.01 26.47 22.27 57.76 49.33zM570.68 266.06c40.11 37.43 48.94 46.06 66.6 65.64l17.27 19-24.38 29.94c-62.75 77.54-120.33 143.37-151.23 172.93-25.53 24.38-45.68 40.88-110.17 89.63-70.25 53.36-90.78 70.25-115.54 95.77-21.5 21.88-31.09 33.97-42.99 54.51-18.04 30.71-33.4 82.91-33.4 113.62 0 11.71-3.45 19.96-11.71 27.83l-6.53 5.95-15.74-2.5c-19.96-3.26-32.63-7.29-48.94-15.74-14.2-7.48-35.51-25.72-41.84-36.08l-4.22-6.72 10.37-21.69c26.1-53.93 73.7-121.88 125.9-179.07 30.52-33.58 60.27-59.49 123.23-107.28 47.21-36.08 59.88-46.83 80.23-68.71 45.87-49.71 84.26-112.85 107.87-176.96 17.47-47.79 18.81-50.48 34.36-66.79 7.68-8.06 14.97-14.78 15.93-14.78.94 0 12.08 9.79 24.93 21.5z"/></svg>