<?xml version="1.0" encoding="utf-8"?>
<!-- Svg Vector Icons : http://www.onlinewebfonts.com/icon -->
<!DOCTYPE svg PUBLIC "-//W3C//DTD SVG 1.1//EN" "http://www.w3.org/Graphics/SVG/1.1/DTD/svg11.dtd">
<svg version="1.1" xmlns="http://www.w3.org/2000/svg" xmlns:xlink="http://www.w3.org/1999/xlink" x="0px" y="0px" viewBox="0 0 1000 1000" enable-background="new 0 0 1000 1000" xml:space="preserve">
<metadata> Svg Vector Icons : http://www.onlinewebfonts.com/icon </metadata>
<g><g transform="translate(0.000000,502.000000) scale(0.100000,-0.100000)"><path d="M6881.5,4802.7c-23.1-9.6-113.3-101.7-199.6-201.5c-88.3-101.7-163.1-184.2-168.9-184.2c-3.8,0-57.6,42.2-117.1,94c-130.5,111.3-174.6,136.3-247.6,136.3c-220.7,0-984.6-823.4-1186.1-1278.3c-49.9-113.2-57.6-224.5-21.1-287.9c13.4-23,69.1-82.5,124.7-132.4l99.8-90.2l-161.2-170.8c-186.2-193.8-224.6-266.8-385.8-708.2c-220.7-604.6-510.5-1107.4-915.5-1593c-222.6-264.9-351.2-380-888.6-786.9c-510.5-387.7-786.9-621.9-1065.2-902.1C1087.1-1964.7,392.3-2953.2,137-3592.3c-84.4-215-26.9-405,197.7-641.1c291.7-307.1,708.2-497.1,1165-535.5c207.3-17.3,286,13.4,439.5,174.6c155.5,161.2,205.4,276.4,220.7,502.9c26.9,437.6,182.3,879,410.7,1176.5c243.8,316.7,518.2,558.5,1385.7,1214.9c646.8,489.4,844.5,650.6,1111.3,905.9c307.1,295.6,867.5,934.7,1462.5,1666c145.9,178.5,268.7,322.4,276.4,322.4c7.7,1.9,76.8-78.7,155.5-178.5c143.9-178.5,186.2-243.8,529.7-838.7c224.6-387.7,264.9-437.6,349.3-454.9c201.5-36.5,696.7,230.3,1115.1,602.7c502.8,447.2,846.4,961.6,930.9,1397.2c19.2,97.9,17.3,126.7-7.7,188.1c-26.9,63.4-49.9,80.6-188.1,142C9390,2186.7,8937,2417,8770,2522.6c-165.1,103.7-706.3,525.9-706.3,548.9c0,5.8,65.3,90.2,145.9,184.3c186.2,222.6,201.5,251.4,180.4,347.4c-13.5,61.4-63.4,119-282.2,334C7645.3,4392,7131,4791.2,6987,4810.4C6950.6,4816.2,6902.6,4812.3,6881.5,4802.7z M7121.4,4278.7c272.5-205.4,808-687.1,808-729.3c0-24.9-155.5-207.3-176.6-207.3c-13.4,0-500.9,418.4-865.6,742.8l-72.9,65.2l88.3,105.6c49.9,57.6,94.1,103.7,99.8,103.7C7010,4359.4,7061.9,4322.9,7121.4,4278.7z M6714.5,3712.6C7950.5,2633.9,8271,2371,8576.2,2179c92.1-59.5,334-188.1,537.4-287.9l368.5-182.3l-26.9-72.9c-109.4-309-403.1-702.5-767.7-1026.8C8501.3,444,8200,238.6,8058,177.2l-90.2-38.4l-103.7,176.6c-55.7,97.9-161.2,278.3-232.2,403.1c-209.2,366.6-447.2,675.6-917.4,1193.8c-255.2,280.2-368.5,391.5-948.1,921.3c-222.6,205.4-410.7,381.9-418.4,393.5c-17.3,26.9,120.9,251.4,266.8,431.8c117.1,145.9,499,547,522.1,547C6142.5,4205.8,6401.6,3983.2,6714.5,3712.6z M5706.8,2359.4c401.1-374.3,489.4-460.6,666-656.4l172.7-190l-243.8-299.4C5674.2,438.2,5098.4-220.1,4789.4-515.7c-255.3-243.8-456.8-408.8-1101.7-896.3c-702.5-533.6-907.8-702.5-1155.4-957.7c-215-218.8-310.9-339.7-429.9-545.1c-180.4-307.1-334-829.1-334-1136.2c0-117.1-34.5-199.6-117.1-278.3l-65.3-59.5l-157.4,25c-199.6,32.6-326.3,72.9-489.4,157.4c-142,74.8-355.1,257.2-418.4,360.8l-42.2,67.2l103.7,216.9c261,539.3,737,1218.8,1259,1790.7C2146.5-1435,2444-1175.9,3073.6-698c472.1,360.8,598.8,468.3,802.3,687.1c458.7,497.1,842.6,1128.5,1078.7,1769.6c174.7,477.9,188.1,504.8,343.6,667.9c76.8,80.6,149.7,147.8,159.3,147.8C5466.9,2574.4,5578.3,2476.5,5706.8,2359.4z"/></g></g>
</svg>