<svg xmlns="http://www.w3.org/2000/svg" viewBox="0 0 1000 1000" xml:space="preserve"><path d="M257.14 280.98c-11.54 2.46-27.5 6.88-35.6 9.82-48.13 17.92-94.29 61.63-114.92 108.29-14.73 33.64-18.91 61.14-18.91 127.69 0 47.63.24 49.35 6.14 61.14 3.44 6.88 6.87 12.28 7.37 12.28.74 0 12.52-5.65 26.52-12.52 28.73-14.49 48.37-21.85 58.93-21.85 10.31 0 30.2 10.81 73.66 40.02 45.43 30.69 59.91 37.08 83.98 37.08 22.1 0 40.76-8.59 88.4-40.27 37.57-25.05 60.16-36.83 70.47-36.83 11.54 0 29.71 9.82 68.26 37.08 46.65 32.9 70.72 43.46 93.55 40.76 16.94-1.96 42.73-14.98 82.01-41.01 45.92-30.46 61.88-38.07 76.86-35.86 9.09 1.23 38.31 14 74.65 32.9.98.49 4.66-4.91 8.35-12.03l6.39-13.01-.98-58.93c-1.23-64.33-3.68-80.54-16.94-112.46-10.07-24.8-26.27-47.63-48.37-68.75-21.12-20.13-39.29-31.92-65.56-42.48-18.91-7.61-60.4-16.7-62.86-14-.98.98-2.21 11.05-2.7 22.59-.74 15.72-2.7 24.31-7.61 35.11-8.84 19.4-28.24 39.29-48.13 49.11l-16.21 7.86H356.58l-16.45-8.1c-20.38-10.07-36.59-26.27-46.65-46.65-6.38-12.77-7.86-19.64-9.09-37.81-.74-12.28-2.46-22.83-3.93-23.08-1.22-.26-11.78 1.46-23.32 3.91zm-6.39 50.1c5.4 28.48 37.32 68.75 66.54 84.22 32.41 16.94 28.97 16.7 182.93 16.7s150.52.25 182.93-16.7c29.22-15.47 61.14-55.74 66.54-84.22 1.97-10.81 5.4-10.81 29.47 1.47 45.92 23.08 77.1 61.39 89.62 110 3.68 14.73 4.67 27.01 4.67 59.67v41.25l-20.13-7.61c-17.43-6.14-23.08-7.12-38.8-6.38-23.57.98-38.3 7.86-85.94 39.78-56.97 38.06-68.75 42.23-90.85 30.94-5.89-2.95-29.22-17.92-51.81-33.15-48.86-32.9-62.61-38.8-86.92-37.57-22.1.98-37.81 8.59-83.49 39.04-59.67 39.78-69.74 42.97-94.04 30.69-7.12-3.68-30.94-18.42-53.04-33.15-22.1-14.73-46.41-28.98-54.02-31.92-19.15-7.12-39.78-6.63-61.63 1.23-9.33 3.19-19.15 6.63-21.36 7.61-4.17 1.23-4.42-1.72-4.42-40.27 0-33.15.98-45.43 4.66-60.16 12.52-48.62 43.71-86.92 89.62-110 24.07-12.28 27.51-12.28 29.47-1.47z"/><path d="M156.46 612.23c-29.22 9.57-77.34 35.11-121.05 64.57-23.57 15.96-28.48 22.84-23.82 34.13 3.19 7.37 14.73 13.51 20.87 11.05 2.21-.74 19.89-11.54 39.53-23.82 44.93-27.99 91.84-51.07 108.29-53.04 15.71-1.72 28.97 4.67 77.59 37.81 46.65 31.68 61.39 38.3 85.21 38.55 16.21.24 20.62-.74 36.83-8.59 10.07-4.91 33.89-19.15 52.55-31.68 40.27-26.52 59.42-36.83 69.24-36.83 11.05 0 30.45 10.31 67.03 35.11 42.73 29.22 52.3 34.62 69.98 39.78 28.48 8.35 49.6.74 108.04-38.06 49.11-32.41 60.4-37.81 76.12-36.1 16.94 1.97 66.54 27.01 110.5 55.49 18.91 12.28 35.6 22.34 37.32 22.34 13.5 0 23.33-14.49 17.68-26.03-5.89-12.77-85.21-62.37-126.7-79.31-18.91-7.86-23.82-8.84-43.46-8.84s-23.82.74-38.06 7.61c-8.84 4.17-31.92 18.42-51.57 31.43-56.97 38.06-68.75 42.23-90.85 30.94-5.89-2.95-29.22-17.92-51.81-33.15-48.86-32.9-62.61-38.8-86.92-37.57-22.1.98-37.81 8.59-83.49 39.04-59.67 39.78-69.74 42.97-94.04 30.69-7.12-3.68-30.94-18.42-53.04-33.15-22.1-14.73-46.41-28.98-54.02-31.92-17.19-6.35-39.29-6.59-57.95-.45z"/></svg>