<?xml version="1.0" encoding="utf-8"?>
<!-- Svg Vector Icons : http://www.onlinewebfonts.com/icon -->
<!DOCTYPE svg PUBLIC "-//W3C//DTD SVG 1.1//EN" "http://www.w3.org/Graphics/SVG/1.1/DTD/svg11.dtd">
<svg version="1.1" xmlns="http://www.w3.org/2000/svg" xmlns:xlink="http://www.w3.org/1999/xlink" x="0px" y="0px" viewBox="0 0 1000 1000" enable-background="new 0 0 1000 1000" xml:space="preserve">
<metadata> Svg Vector Icons : http://www.onlinewebfonts.com/icon </metadata>
<g><g transform="translate(0.000000,511.000000) scale(0.100000,-0.100000)"><path d="M2571.4,2300.2c-115.4-24.6-275-68.8-356-98.2c-481.3-179.2-942.9-616.3-1149.2-1082.9C918.9,782.7,877.1,507.7,877.1-157.8c0-476.3,2.4-493.5,61.4-611.4c34.4-68.8,68.7-122.8,73.7-122.8c7.4,0,125.2,56.5,265.2,125.2c287.3,144.9,483.7,218.5,589.3,218.5c103.1,0,302-108.1,736.6-400.2c454.3-306.9,599.1-370.8,839.8-370.8c221,0,407.6,85.9,884,402.7c375.7,250.5,601.6,368.3,704.7,368.3c115.4,0,297.1-98.2,682.6-370.8c466.5-329,707.2-434.6,935.5-407.6c169.4,19.6,427.3,149.8,820.1,410.1C7929.2-612,8088.8-535.9,8238.6-558c90.9-12.3,383.1-140,746.5-329c9.8-4.9,46.6,49.1,83.5,120.3l63.9,130.1l-9.8,589.3c-12.3,643.3-36.8,805.4-169.4,1124.6c-100.7,248-262.7,476.3-483.7,687.5c-211.2,201.3-392.9,319.2-655.6,424.8c-189.1,76.1-604,167-628.6,140c-9.8-9.8-22.1-110.5-27-225.9c-7.4-157.2-27-243.1-76.1-351.1c-88.4-194-282.4-392.9-481.3-491.1l-162.1-78.6H5002.3H3565.8l-164.5,81c-203.8,100.7-365.9,262.7-466.5,466.5c-63.8,127.7-78.6,196.4-90.9,378.1c-7.4,122.8-24.6,228.3-39.3,230.8C2792.4,2341.9,2686.8,2324.7,2571.4,2300.2z M2507.5,1799.2c54-284.8,373.2-687.5,665.4-842.2c324.1-169.4,289.7-167,1829.3-167c1539.6,0,1505.2-2.5,1829.3,167c292.2,154.7,611.4,557.4,665.4,842.2c19.7,108.1,54,108.1,294.7-14.7c459.2-230.8,771-613.9,896.2-1100c36.8-147.3,46.7-270.1,46.7-596.7v-412.5l-201.3,76.1c-174.3,61.4-230.8,71.2-388,63.8c-235.7-9.8-383-78.6-859.4-397.8c-569.7-380.6-687.5-422.3-908.5-309.4c-58.9,29.5-292.2,179.2-518.1,331.5c-488.6,329-626.1,388-869.2,375.7c-221-9.8-378.1-85.9-834.9-390.4c-596.7-397.8-697.4-429.7-940.4-306.9c-71.2,36.8-309.4,184.2-530.4,331.5c-221,147.3-464.1,289.8-540.2,319.2c-191.5,71.2-397.8,66.3-616.3-12.3c-93.3-31.9-191.5-66.3-213.6-76.1c-41.7-12.3-44.2,17.2-44.2,402.7c0,331.5,9.8,454.3,46.6,601.6c125.2,486.2,437.1,869.2,896.2,1100C2453.5,1907.3,2487.9,1907.3,2507.5,1799.2z"/><path d="M1564.6-1012.3C1272.4-1108,791.2-1363.4,354.1-1658c-235.7-159.6-284.8-228.4-238.2-341.3c31.9-73.7,147.3-135.1,208.7-110.5c22.1,7.4,198.9,115.4,395.3,238.2c449.3,279.9,918.4,510.7,1082.9,530.4c157.1,17.2,289.7-46.7,775.9-378.1c466.5-316.8,613.9-383,852.1-385.5c162.1-2.4,206.2,7.4,368.3,85.9c100.7,49.1,338.9,191.5,525.5,316.8c402.7,265.2,594.2,368.3,692.4,368.3c110.5,0,304.5-103.1,670.3-351.1c427.3-292.2,523-346.2,699.8-397.8c284.8-83.5,496-7.4,1080.4,380.6c491.1,324.1,604,378.1,761.2,361c169.4-19.7,665.4-270.1,1105-554.9c189.1-122.8,356-223.4,373.2-223.4c135,0,233.3,144.9,176.8,260.3c-58.9,127.7-852.1,623.7-1267,793.1c-189.1,78.6-238.2,88.4-434.6,88.4c-196.4,0-238.2-7.4-380.6-76.1c-88.4-41.7-319.2-184.2-515.7-314.3c-569.7-380.6-687.5-422.3-908.5-309.4c-58.9,29.5-292.2,179.2-518.1,331.5c-488.6,329-626.1,388-869.2,375.7c-221-9.8-378.1-85.9-834.9-390.4c-596.7-397.8-697.4-429.7-940.4-306.9c-71.2,36.8-309.4,184.2-530.4,331.5c-221,147.3-464.1,289.8-540.2,319.2C1972.2-953.3,1751.2-950.9,1564.6-1012.3z"/></g></g>
</svg>