<svg xmlns="http://www.w3.org/2000/svg" width="15" height="15" viewBox="0 0 78.609 79.298"><path style="fill:#000;stroke-width:.264583" d="M77.828 104.703c-1.152.196-1.766 1.369-2.557 2.108-.875 1.09-2.14 1.982-2.558 3.367-.2 1.32 1.093 2.178 1.886 3.02.986.839 1.76 1.992 2.956 2.546 1.159.294 1.917-.918 2.659-1.586.968-1.127 2.302-2.015 2.908-3.406.397-1.23-.78-2.195-1.527-2.995-1.06-.971-1.916-2.211-3.167-2.946a1.315 1.315 0 0 0-.6-.108zm-20.617 4.889c-4.255.157-8.68 1.276-11.903 4.2-3.815 3.397-5.893 8.235-7.568 12.952-.666 2.068-1.445 4.12-1.826 6.264-.217.969.462 1.89 1.396 2.124 1.83.576 3.696 1.066 5.56 1.516.956-.084 1.095-1.28 1.375-2.008 1.278-4.124 2.498-8.402 4.888-11.992 1.417-2.176 3.69-3.816 6.29-4.192 3.244-.598 7.038-.084 9.942 1.812 3.162 1.997 5.381 5.369 6.195 8.931.358 1.585.47 3.041.297 4.695-.25 2.383-1.233 4.713-2.825 6.42-1.58 1.776-3.781 2.836-6.026 3.504-1.275.55-1.422 2.126-1.945 3.248-.591 1.686-1.247 3.36-1.676 5.096.196.86 1.294.609 1.941.583 5.411-.56 10.899-2.6 14.618-6.71 3.958-4.291 5.405-10.467 4.543-16.16-1.107-8.037-6.43-15.56-14.025-18.653-2.915-1.218-6.1-1.731-9.251-1.63zm5.43 12.469c-.994.081-1.34 1.203-1.906 1.861-4.932 7.24-9.05 15.077-11.774 23.417-1.683 4.762-3.04 9.634-4.76 14.383-1.392 3.548-3.08 7.283-6.303 9.536-3.003 2.059-6.87 1.933-10.298 1.286-.96-.16-2.11-.662-2.926.15-1.376 1.278-2.561 2.755-3.778 4.183-.666.749-.95 2.058-.046 2.748 1.503 1.095 3.451 1.23 5.224 1.571 4.795.757 9.97 1.04 14.473-1.089 4.407-2.054 7.392-6.18 9.545-10.4 3.905-7.584 5.712-15.986 8.706-23.929 2.023-5.554 4.482-10.987 8.078-15.751.655-.834 1.258-1.983.687-3.023-.934-1.86-2.146-3.783-4.052-4.762a1.916 1.916 0 0 0-.87-.181zm-35.223 14.414c-5.94.05-11.784 2.887-15.441 7.578-4.176 5.199-5.504 12.375-3.917 18.803.364 1.394.721 2.83 1.4 4.103.616.683 1.42-.149 1.857-.623 1.56-1.725 3.306-3.306 4.644-5.215.823-1.28.168-2.86.248-4.219-.103-3.31.787-6.938 3.475-9.097 2.889-2.326 6.728-2.657 10.304-2.396 5.089.378 9.913 2.155 14.684 3.839.826-.227.91-1.28 1.258-1.942.642-1.79 1.368-3.582 1.677-5.464-.03-.803-1.08-.871-1.646-1.174-4.602-1.54-9.292-2.84-14.046-3.818a22.936 22.936 0 0 0-4.497-.375zm2.45 11.359c-1.153.252-1.664 1.495-2.312 2.359-4.788 7.201-10.354 13.856-16.184 20.231-1.974 2.23-4.212 4.22-6.093 6.529-.698.797-.99 2.044-.267 2.926 1.029 1.277 2.233 2.41 3.395 3.564.614.699 1.726.75 2.383.083 1.915-1.768 3.591-3.784 5.4-5.659 6.252-6.867 12.28-13.952 17.787-21.433 1.254-1.827 2.69-3.59 3.5-5.671.286-.606-.125-1.269-.782-1.331-2.23-.624-4.473-1.245-6.761-1.61z" transform="translate(-4.593 -104.7)"/></svg>