<?xml version="1.0" encoding="UTF-8" standalone="no"?>
<svg
   xmlns:dc="http://purl.org/dc/elements/1.1/"
   xmlns:cc="http://creativecommons.org/ns#"
   xmlns:rdf="http://www.w3.org/1999/02/22-rdf-syntax-ns#"
   xmlns:svg="http://www.w3.org/2000/svg"
   xmlns="http://www.w3.org/2000/svg"
   xmlns:sodipodi="http://sodipodi.sourceforge.net/DTD/sodipodi-0.dtd"
   xmlns:inkscape="http://www.inkscape.org/namespaces/inkscape"
   width="15"
   height="15"
   viewBox="0 0 78.60862 79.297623"
   version="1.1"
   id="svg8"
   inkscape:version="1.0.2 (e86c870879, 2021-01-15)"
   sodipodi:docname="knot.svg">
  <defs
     id="defs2" />
  <sodipodi:namedview
     id="base"
     pagecolor="#ffffff"
     bordercolor="#666666"
     borderopacity="1.0"
     inkscape:pageopacity="0.0"
     inkscape:pageshadow="2"
     inkscape:zoom="0.98994949"
     inkscape:cx="372.95198"
     inkscape:cy="210.21045"
     inkscape:document-units="mm"
     inkscape:current-layer="layer1"
     inkscape:document-rotation="0"
     showgrid="false"
     inkscape:window-width="1600"
     inkscape:window-height="835"
     inkscape:window-x="0"
     inkscape:window-y="36"
     inkscape:window-maximized="1"
     fit-margin-top="0"
     fit-margin-left="0"
     fit-margin-right="0"
     fit-margin-bottom="0" />
  <metadata
     id="metadata5">
    <rdf:RDF>
      <cc:Work
         rdf:about="">
        <dc:format>image/svg+xml</dc:format>
        <dc:type
           rdf:resource="http://purl.org/dc/dcmitype/StillImage" />
        <dc:title></dc:title>
      </cc:Work>
    </rdf:RDF>
  </metadata>
  <g
     inkscape:label="Calque 1"
     inkscape:groupmode="layer"
     id="layer1"
     transform="translate(-4.5926547,-104.70057)">
    <path
       id="path182"
       style="fill:#000000;stroke-width:0.264583"
       d="m 77.828125,104.70312 c -1.152093,0.19561 -1.765749,1.3684 -2.557268,2.10739 -0.87461,1.09101 -2.139238,1.98246 -2.557966,3.36722 -0.200713,1.32002 1.09346,2.17857 1.886378,3.02096 0.98605,0.83826 1.760032,1.99145 2.955419,2.54545 1.159307,0.2937 1.917206,-0.91817 2.659179,-1.58653 0.967857,-1.12623 2.302593,-2.01439 2.907676,-3.40595 0.397074,-1.23025 -0.779741,-2.19457 -1.526995,-2.9947 -1.060308,-0.97108 -1.915451,-2.21097 -3.166814,-2.94641 -0.188046,-0.0806 -0.395593,-0.12087 -0.599609,-0.10743 z m -20.617187,4.88868 c -4.254641,0.15738 -8.679216,1.27609 -11.90259,4.20055 -3.815383,3.39678 -5.892988,8.23462 -7.568223,12.95163 -0.665737,2.06773 -1.445539,4.12078 -1.826509,6.26388 -0.216667,0.96895 0.462747,1.89039 1.3961,2.12448 1.830171,0.57523 3.696347,1.06525 5.559425,1.5161 0.957314,-0.0848 1.095386,-1.27971 1.376285,-2.00822 1.27775,-4.12396 2.497185,-8.40192 4.887386,-11.99178 1.417138,-2.17659 3.689489,-3.81639 6.289253,-4.19261 3.245095,-0.59757 7.038693,-0.0838 9.943169,1.81175 3.162197,1.99765 5.381084,5.36908 6.195015,8.93171 0.357715,1.58425 0.469002,3.04104 0.297247,4.69458 -0.250004,2.38308 -1.233333,4.71321 -2.825195,6.41966 -1.580046,1.77671 -3.781286,2.83664 -6.02613,3.50407 -1.275016,0.55089 -1.422264,2.12653 -1.94476,3.24799 -0.591524,1.68655 -1.247064,3.3602 -1.676645,5.09652 0.196563,0.85911 1.293911,0.60844 1.941193,0.58254 5.411407,-0.56038 10.898721,-2.60027 14.618286,-6.7096 3.957594,-4.2911 5.40505,-10.46686 4.542992,-16.16079 -1.107297,-8.03645 -6.430797,-15.55951 -14.025291,-18.6523 -2.914527,-1.2182 -6.100071,-1.73116 -9.251008,-1.63016 z m 5.429687,12.46875 c -0.993254,0.0817 -1.339681,1.20299 -1.906011,1.86144 -4.931774,7.2393 -9.048797,15.07726 -11.773778,23.41708 -1.682444,4.76223 -3.040758,9.63361 -4.758913,14.38299 -1.393053,3.54815 -3.081403,7.28311 -6.303485,9.53575 -3.002973,2.05903 -6.870042,1.93282 -10.298662,1.28603 -0.959933,-0.15999 -2.109073,-0.66224 -2.92533,0.14963 -1.376383,1.27893 -2.56194,2.75533 -3.778346,4.1836 -0.666184,0.74866 -0.950226,2.058 -0.04649,2.74793 1.50322,1.09498 3.451375,1.23012 5.22443,1.5712 4.794498,0.75666 9.970304,1.04031 14.472836,-1.08878 4.406646,-2.05396 7.392301,-6.17965 9.545162,-10.39996 3.905149,-7.58448 5.712376,-15.98631 8.706429,-23.92932 2.022328,-5.55386 4.481867,-10.98676 8.07775,-15.75162 0.654951,-0.83307 1.258079,-1.98253 0.686546,-3.02214 -0.933312,-1.86048 -2.145976,-3.78317 -4.051566,-4.76272 -0.27035,-0.12149 -0.574454,-0.1967 -0.870571,-0.18111 z m -35.222656,14.41406 c -5.939381,0.0497 -11.784403,2.88706 -15.44114,7.57809 -4.1758347,5.19933 -5.5040531,12.37506 -3.9166977,18.8035 0.3640071,1.39362 0.7212632,2.82989 1.4008062,4.10278 0.6153725,0.68324 1.4195495,-0.14854 1.8559265,-0.62333 1.559293,-1.7245 3.305716,-3.30529 4.644074,-5.21456 0.82297,-1.28 0.168319,-2.85962 0.248046,-4.21875 -0.103423,-3.31068 0.787501,-6.93799 3.475406,-9.09773 2.888222,-2.3261 6.727283,-2.65649 10.303813,-2.39547 5.088712,0.37798 9.912707,2.15478 14.683672,3.83891 0.826316,-0.22658 0.910221,-1.28074 1.258094,-1.94217 0.64223,-1.78973 1.367652,-3.58214 1.677453,-5.46408 -0.03097,-0.80269 -1.080553,-0.87091 -1.646484,-1.17383 -4.602364,-1.53913 -9.292414,-2.83969 -14.045851,-3.81755 -1.482337,-0.27007 -2.990098,-0.40141 -4.497118,-0.37581 z m 2.449219,11.35937 c -1.152065,0.25176 -1.663093,1.49546 -2.311183,2.3587 -4.788113,7.2017 -10.35393,13.85634 -16.183984,20.23177 -1.9736555,2.23001 -4.2120651,4.21906 -6.0934811,6.52853 -0.6980306,0.797 -0.9887635,2.04439 -0.2668211,2.92593 1.0288714,1.27677 2.2330194,2.40987 3.3951815,3.56401 0.6136615,0.69906 1.7262397,0.75062 2.3830587,0.0832 1.914729,-1.76835 3.591506,-3.78365 5.400313,-5.65875 6.251336,-6.8671 12.279966,-13.95245 17.78662,-21.43384 1.254257,-1.82613 2.690727,-3.59011 3.500164,-5.67075 0.285621,-0.60529 -0.124925,-1.26872 -0.781744,-1.33114 -2.230178,-0.62413 -4.473777,-1.24492 -6.761718,-1.60937 z" />
  </g>
</svg>
